<?xml version="1.0" encoding="UTF-8"?>
<svg version="1.1" xmlns="http://www.w3.org/2000/svg" width="512" height="512">
<path d="M0 0 C2.94846068 0.00314748 5.8959015 -0.02035196 8.84423828 -0.0456543 C22.23420356 -0.09027055 35.14581187 1.11142326 48.34814453 3.31567383 C50.05357422 3.59785767 50.05357422 3.59785767 51.79345703 3.88574219 C54.389253 4.35197518 56.96081163 4.87071381 59.53564453 5.44067383 C60.92456909 5.74763184 60.92456909 5.74763184 62.34155273 6.06079102 C106.79224038 16.39661722 147.52755017 38.70475281 180.34814453 70.31567383 C181.33717773 71.26385986 181.33717773 71.26385986 182.34619141 72.23120117 C191.83444759 81.37564862 200.57434893 90.67301392 208.34814453 101.31567383 C209.20620605 102.46672399 210.06427904 103.6177656 210.92236328 104.76879883 C216.96051282 112.95997997 222.31909974 121.47371488 227.34814453 130.31567383 C227.71262695 130.94747559 228.07710938 131.57927734 228.45263672 132.23022461 C243.38287471 158.31531384 252.86199507 187.65152497 257.34814453 217.31567383 C257.52474609 218.438125 257.70134766 219.56057617 257.88330078 220.71704102 C259.54020313 232.33015126 259.74687966 243.84747328 259.72314453 255.56567383 C259.7223288 257.08369598 259.7223288 257.08369598 259.72149658 258.63238525 C259.68076409 275.16097955 258.77738675 291.09481382 255.34814453 307.31567383 C255.12852051 308.35755859 254.90889648 309.39944336 254.68261719 310.47290039 C245.68455384 351.72516817 226.9639567 390.30178787 199.34814453 422.31567383 C198.71392578 423.06075195 198.07970703 423.80583008 197.42626953 424.57348633 C185.61512939 438.07847215 172.86454225 450.74986126 158.34814453 461.31567383 C157.19819622 462.17216449 156.04845864 463.02893816 154.89892578 463.88598633 C146.70880195 469.92601591 138.20434836 475.30934997 129.34814453 480.31567383 C128.64093262 480.71786133 127.9337207 481.12004883 127.20507812 481.53442383 C104.06968618 494.55984793 78.89852044 503.30868844 52.91064453 508.62817383 C52.19175049 508.77552979 51.47285645 508.92288574 50.73217773 509.07470703 C35.20552361 512.0258259 19.80501045 512.72275371 4.03564453 512.69067383 C2.52136871 512.68985809 2.52136871 512.68985809 0.97650146 512.68902588 C-15.53309086 512.64825984 -31.44967548 511.74096691 -47.65185547 508.31567383 C-48.69374023 508.0960498 -49.735625 507.87642578 -50.80908203 507.65014648 C-92.06134981 498.65208314 -130.63796952 479.93148599 -162.65185547 452.31567383 C-163.39693359 451.68145508 -164.14201172 451.04723633 -164.90966797 450.39379883 C-178.41465379 438.58265868 -191.0860429 425.83207154 -201.65185547 411.31567383 C-202.50834613 410.16572552 -203.3651198 409.01598794 -204.22216797 407.86645508 C-210.26279687 399.67477856 -215.62190618 391.15922305 -220.65185547 382.31567383 C-221.01633789 381.68387207 -221.38082031 381.05207031 -221.75634766 380.40112305 C-236.68658564 354.31603382 -246.16570601 324.97982269 -250.65185547 295.31567383 C-250.91675781 293.63199707 -250.91675781 293.63199707 -251.18701172 291.91430664 C-252.84391407 280.3011964 -253.0505906 268.78387438 -253.02685547 257.06567383 C-253.02631165 256.05365906 -253.02576782 255.04164429 -253.02520752 253.9989624 C-252.98446056 237.46449987 -252.06072454 221.54502519 -248.65185547 205.31567383 C-248.44286621 204.30037598 -248.23387695 203.28507813 -248.01855469 202.23901367 C-239.20958442 160.78076636 -220.15063576 122.49614611 -192.65185547 90.31567383 C-191.69666016 89.19225586 -191.69666016 89.19225586 -190.72216797 88.04614258 C-178.90483078 74.55046762 -166.16633959 61.88009358 -151.65185547 51.31567383 C-150.50190716 50.45918317 -149.35216958 49.6024095 -148.20263672 48.74536133 C-140.01251289 42.70533174 -131.50805929 37.32199769 -122.65185547 32.31567383 C-121.94464355 31.91348633 -121.23743164 31.51129883 -120.50878906 31.09692383 C-94.30394366 16.34337111 -65.36646428 6.81437176 -35.65185547 2.31567383 C-34.53375488 2.13834717 -33.4156543 1.96102051 -32.26367188 1.77832031 C-21.50231249 0.23401232 -10.86244537 -0.02412288 0 0 Z " fill="#00966D" transform="translate(252.65185546875,-0.315673828125)"/>
<path d="M0 0 C2.94846068 0.00314748 5.8959015 -0.02035196 8.84423828 -0.0456543 C22.23420356 -0.09027055 35.14581187 1.11142326 48.34814453 3.31567383 C50.05357422 3.59785767 50.05357422 3.59785767 51.79345703 3.88574219 C54.389253 4.35197518 56.96081163 4.87071381 59.53564453 5.44067383 C60.92456909 5.74763184 60.92456909 5.74763184 62.34155273 6.06079102 C106.79224038 16.39661722 147.52755017 38.70475281 180.34814453 70.31567383 C181.33717773 71.26385986 181.33717773 71.26385986 182.34619141 72.23120117 C191.83444759 81.37564862 200.57434893 90.67301392 208.34814453 101.31567383 C209.20620605 102.46672399 210.06427904 103.6177656 210.92236328 104.76879883 C216.95933176 112.95837779 222.33036914 121.46883425 227.34814453 130.31567383 C227.90284424 131.28730469 227.90284424 131.28730469 228.46875 132.27856445 C245.34814453 162.12689942 245.34814453 162.12689942 245.34814453 171.31567383 C85.62814453 171.31567383 -74.09185547 171.31567383 -238.65185547 171.31567383 C-236.35685453 163.66567071 -233.96400736 157.02968951 -230.65185547 149.87817383 C-230.16837646 148.83266357 -229.68489746 147.78715332 -229.18676758 146.70996094 C-219.5788891 126.27279756 -207.41003323 107.42422805 -192.65185547 90.31567383 C-192.01763672 89.5705957 -191.38341797 88.82551758 -190.72998047 88.05786133 C-178.91884032 74.5528755 -166.16825319 61.8814864 -151.65185547 51.31567383 C-150.50190716 50.45918317 -149.35216958 49.6024095 -148.20263672 48.74536133 C-140.01251289 42.70533174 -131.50805929 37.32199769 -122.65185547 32.31567383 C-121.94464355 31.91348633 -121.23743164 31.51129883 -120.50878906 31.09692383 C-94.30394366 16.34337111 -65.36646428 6.81437176 -35.65185547 2.31567383 C-34.53375488 2.13834717 -33.4156543 1.96102051 -32.26367188 1.77832031 C-21.50231249 0.23401232 -10.86244537 -0.02412288 0 0 Z " fill="#EFEFEF" transform="translate(252.65185546875,-0.315673828125)"/>
<path d="M0 0 C159.72 0 319.44 0 484 0 C481.70499906 7.65000312 479.31215189 14.28598431 476 21.4375 C475.516521 22.48301025 475.03304199 23.52852051 474.53491211 24.60571289 C464.92703363 45.04287627 452.75817776 63.89144578 438 81 C437.36578125 81.74507813 436.7315625 82.49015625 436.078125 83.2578125 C424.26698485 96.76279833 411.51639772 109.43418743 397 120 C395.85005169 120.85649066 394.70031411 121.71326433 393.55078125 122.5703125 C385.36065742 128.61034209 376.85620382 133.99367614 368 139 C366.93918213 139.60328125 366.93918213 139.60328125 365.85693359 140.21875 C342.72154164 153.2441741 317.55037591 161.99301461 291.5625 167.3125 C290.84360596 167.45985596 290.12471191 167.60721191 289.3840332 167.7590332 C273.85737908 170.71015207 258.45686592 171.40707988 242.6875 171.375 C241.67798279 171.37445618 240.66846558 171.37391235 239.62835693 171.37335205 C223.11876461 171.33258601 207.20217999 170.42529309 191 167 C189.95811523 166.78037598 188.91623047 166.56075195 187.84277344 166.33447266 C146.59050566 157.33640931 108.01388595 138.61581216 76 111 C75.25492187 110.36578125 74.50984375 109.7315625 73.7421875 109.078125 C60.23720167 97.26698485 47.56581257 84.51639772 37 70 C36.14350934 68.85005169 35.28673567 67.70031411 34.4296875 66.55078125 C28.39024254 58.36071027 23.01867626 49.84842789 18 41 C17.6302002 40.35224609 17.26040039 39.70449219 16.87939453 39.03710938 C0 9.1887744 0 9.1887744 0 0 Z " fill="#D52612" transform="translate(14,341)"/>
</svg>
