<?xml version="1.0" encoding="UTF-8"?>
<svg version="1.1" xmlns="http://www.w3.org/2000/svg" width="512" height="512">
<path d="M0 0 C0.90250488 0.1556543 1.80500977 0.31130859 2.73486328 0.47167969 C44.70720538 7.88770628 83.94282986 26.2470337 117 53 C117.53915039 53.43473633 118.07830078 53.86947266 118.63378906 54.31738281 C133.46106404 66.38039886 147.41958611 79.83616298 158.73339844 95.28027344 C160.05282133 97.07171809 161.40252371 98.83712992 162.7578125 100.6015625 C169.15390711 109.01062426 174.69806629 117.758701 179.86083984 126.97265625 C180.90765887 128.83566208 181.97678881 130.68383639 183.05078125 132.53125 C195.33810382 154.39726692 203.25783627 178.87950831 208.3125 203.375 C208.45993652 204.08567627 208.60737305 204.79635254 208.75927734 205.52856445 C211.74463787 221.17108366 212.3748098 236.80669606 212.3125 252.6875 C212.30976578 254.13858658 212.30976578 254.13858658 212.30697632 255.61898804 C212.26154826 269.95190977 211.75266072 283.89773917 209 298 C208.83902832 298.89702637 208.67805664 299.79405273 208.51220703 300.71826172 C197.70064043 360.46748615 164.0775709 416.69015896 116 454 C115.06542969 454.763125 114.13085938 455.52625 113.16796875 456.3125 C99.36401223 467.36984129 84.00721343 476.63111422 67.97460938 484.08056641 C66.63571736 484.70399214 65.30116442 485.33680646 63.97070312 485.97802734 C43.70738663 495.74342377 22.10736632 502.04321852 0 506 C-1.3317627 506.24556641 -1.3317627 506.24556641 -2.69042969 506.49609375 C-30.18313306 511.35069734 -60.56811881 511.00951828 -88 506 C-89.35375732 505.76651855 -89.35375732 505.76651855 -90.73486328 505.52832031 C-132.70720538 498.11229372 -171.94282986 479.7529663 -205 453 C-205.53915039 452.56526367 -206.07830078 452.13052734 -206.63378906 451.68261719 C-221.46106404 439.61960114 -235.41958611 426.16383702 -246.73339844 410.71972656 C-248.05282133 408.92828191 -249.40252371 407.16287008 -250.7578125 405.3984375 C-257.15390711 396.98937574 -262.69806629 388.241299 -267.86083984 379.02734375 C-268.90765887 377.16433792 -269.97678881 375.31616361 -271.05078125 373.46875 C-283.33810382 351.60273308 -291.25783627 327.12049169 -296.3125 302.625 C-296.45993652 301.91432373 -296.60737305 301.20364746 -296.75927734 300.47143555 C-299.74463787 284.82891634 -300.3748098 269.19330394 -300.3125 253.3125 C-300.31067719 252.34510895 -300.30885437 251.3777179 -300.30697632 250.38101196 C-300.26154826 236.04809023 -299.75266072 222.10226083 -297 208 C-296.75854248 206.65446045 -296.75854248 206.65446045 -296.51220703 205.28173828 C-285.70064043 145.53251385 -252.0775709 89.30984104 -204 52 C-203.06542969 51.236875 -202.13085938 50.47375 -201.16796875 49.6875 C-187.36401223 38.63015871 -172.00721343 29.36888578 -155.97460938 21.91943359 C-154.63571736 21.29600786 -153.30116442 20.66319354 -151.97070312 20.02197266 C-131.70738663 10.25657623 -110.10736632 3.95678148 -88 0 C-87.1121582 -0.16371094 -86.22431641 -0.32742188 -85.30957031 -0.49609375 C-57.81686694 -5.35069734 -27.43188119 -5.00951828 0 0 Z " fill="#999999" transform="translate(300,3)"/>
<path d="M0 0 C94.38 0 188.76 0 286 0 C286 18.48 286 36.96 286 56 C191.62 56 97.24 56 0 56 C0 37.52 0 19.04 0 0 Z " fill="#FEFEFE" transform="translate(113,228)"/>
</svg>
