<?xml version="1.0" encoding="UTF-8"?>
<svg version="1.1" xmlns="http://www.w3.org/2000/svg" width="50" height="50">
<path d="M0 0 C16.5 0 33 0 50 0 C50 16.5 50 33 50 50 C33.5 50 17 50 0 50 C0 33.5 0 17 0 0 Z " fill="#FCFCFC" transform="translate(0,0)"/>
<path d="M0 0 C0 15.51 0 31.02 0 47 C-16.5 47 -33 47 -50 47 C-50 39.74 -50 32.48 -50 25 C-43.24487896 30.62926754 -43.24487896 30.62926754 -41.4453125 33.48046875 C-41.05859375 34.08697266 -40.671875 34.69347656 -40.2734375 35.31835938 C-39.89445312 35.93517578 -39.51546875 36.55199219 -39.125 37.1875 C-38.7228125 37.81591797 -38.320625 38.44433594 -37.90625 39.09179688 C-35 43.71312978 -35 43.71312978 -35 46 C-34.01 46 -33.02 46 -32 46 C-31.690625 44.845 -31.38125 43.69 -31.0625 42.5 C-27.65948605 32.37084111 -11.65612206 0 0 0 Z " fill="#FCFCFC" transform="translate(50,3)"/>
<path d="M0 0 C-0.41565453 4.41632933 -3.43319067 6.60289729 -6.5 9.4375 C-17.77932305 20.32597203 -26.46553091 34.31557951 -32 49 C-32.99 49 -33.98 49 -35 49 C-36.796875 46.4375 -36.796875 46.4375 -38.75 43 C-41.66138637 37.98036833 -44.72404928 33.71856768 -48.84765625 29.5859375 C-49.22792969 29.06257813 -49.60820313 28.53921875 -50 28 C-49.505 26.515 -49.505 26.515 -49 25 C-43.63262131 24.67795728 -40.72415664 25.58543105 -36 28 C-33.44739028 27.74776584 -32.27885089 27.25985375 -30.39453125 25.50390625 C-29.87246094 24.86324219 -29.35039062 24.22257812 -28.8125 23.5625 C-28.20664062 22.84191406 -27.60078125 22.12132813 -26.9765625 21.37890625 C-26.32429688 20.59386719 -25.67203125 19.80882813 -25 19 C-8.85150079 0 -8.85150079 0 0 0 Z " fill="#1B1B1B" transform="translate(50,0)"/>
</svg>
